<svg width="14" height="16" viewBox="0 0 14 16" fill="none" xmlns="http://www.w3.org/2000/svg">
<path d="M4.66667 7.22217H3.11111V8.77772H4.66667V7.22217ZM7.77778 7.22217H6.22222V8.77772H7.77778V7.22217ZM10.8889 7.22217H9.33333V8.77772H10.8889V7.22217ZM12.4444 1.77772H11.6667V0.222168H10.1111V1.77772H3.88889V0.222168H2.33333V1.77772H1.55556C0.692222 1.77772 0.00777777 2.47772 0.00777777 3.33328L0 14.2222C0 15.0777 0.692222 15.7777 1.55556 15.7777H12.4444C13.3 15.7777 14 15.0777 14 14.2222V3.33328C14 2.47772 13.3 1.77772 12.4444 1.77772ZM12.4444 14.2222H1.55556V5.66661H12.4444V14.2222Z" fill="#0A3B32"/>
</svg>
