<svg width="25" height="28" viewBox="0 0 25 28" fill="none" xmlns="http://www.w3.org/2000/svg">
<path d="M21.2647 28H3.03782C1.36337 28 0 26.691 0 25.0833V2.91667C0 1.309 1.36337 0 3.03782 0H21.2647C22.9392 0 24.3025 1.309 24.3025 2.91667V25.0833C24.3025 26.691 22.9392 28 21.2647 28ZM3.03782 1.16667C2.03291 1.16667 1.21513 1.95183 1.21513 2.91667V25.0833C1.21513 26.0482 2.03291 26.8333 3.03782 26.8333H21.2647C22.2696 26.8333 23.0874 26.0482 23.0874 25.0833V2.91667C23.0874 1.95183 22.2696 1.16667 21.2647 1.16667H3.03782Z" fill="#0A3B32"/>
<path d="M20.0495 24.4992H4.25283C3.91745 24.4992 3.64526 24.2378 3.64526 23.9158V9.91585C3.64526 9.59385 3.91745 9.33252 4.25283 9.33252H20.0495C20.3848 9.33252 20.657 9.59385 20.657 9.91585V23.9158C20.657 24.2378 20.3848 24.4992 20.0495 24.4992ZM4.86039 23.3325H19.4419V10.4992H4.86039V23.3325Z" fill="#0A3B32"/>
<path d="M9.11344 24.4992C8.77806 24.4992 8.50586 24.2378 8.50586 23.9158V9.91585C8.50586 9.59385 8.77806 9.33252 9.11344 9.33252C9.44883 9.33252 9.72103 9.59385 9.72103 9.91585V23.9158C9.72103 24.2378 9.44883 24.4992 9.11344 24.4992Z" fill="#0A3B32"/>
<path d="M20.0495 13.9996H4.25283C3.91745 13.9996 3.64526 13.7383 3.64526 13.4163C3.64526 13.0943 3.91745 12.833 4.25283 12.833H20.0495C20.3848 12.833 20.657 13.0943 20.657 13.4163C20.657 13.7383 20.3848 13.9996 20.0495 13.9996Z" fill="#0A3B32"/>
<path d="M20.0495 17.4991H4.25283C3.91745 17.4991 3.64526 17.2378 3.64526 16.9158C3.64526 16.5938 3.91745 16.3325 4.25283 16.3325H20.0495C20.3848 16.3325 20.657 16.5938 20.657 16.9158C20.657 17.2378 20.3848 17.4991 20.0495 17.4991Z" fill="#0A3B32"/>
<path d="M20.0495 20.9992H4.25283C3.91745 20.9992 3.64526 20.7378 3.64526 20.4159C3.64526 20.0939 3.91745 19.8325 4.25283 19.8325H20.0495C20.3848 19.8325 20.657 20.0939 20.657 20.4159C20.657 20.7378 20.3848 20.9992 20.0495 20.9992Z" fill="#0A3B32"/>
</svg>
